# xmcd CD database file
#
# Track frame offsets:
#	150
#	67595
#	80227
#	85810
#
# Disc length: 2355 seconds
#
# Revision: 0
# Processed by: cddbd v1.5.1PL0 Copyright (c) Steve Scherf et al.
# Submitted via: CDex 1.51
#
DISCID=26093104
DTITLE=Dollar Brand - Anatomy of a south african village
DYEAR=1965
DGENRE=Jazz
TTITLE0=Anatomy of a south african village
TTITLE1=Smoke gets in your eyes
TTITLE2=Mamma
TTITLE3=Boulevard east
EXTD=YEAR: 1965
EXTT0=
EXTT1=
EXTT2=
EXTT3=
PLAYORDER=
